<mxfile host="app.diagrams.net" modified="2023-10-15T21:55:26.970Z" agent="Mozilla/5.0 (X11; Linux x86_64; rv:109.0) Gecko/20100101 Firefox/118.0" etag="OU3okJtlh2rt9Jv5awED" version="22.0.4" type="device">
  <diagram name="PÃ¡gina-1" id="TXax3lWE6bbQa8R0nEwo">
    <mxGraphModel dx="1097" dy="533" grid="1" gridSize="10" guides="1" tooltips="1" connect="1" arrows="1" fold="1" page="1" pageScale="1" pageWidth="827" pageHeight="1169" math="0" shadow="0">
      <root>
        <mxCell id="0" />
        <mxCell id="1" parent="0" />
        <mxCell id="rnWshpyR3_FJ3rtjjiAS-42" value="" style="group" vertex="1" connectable="0" parent="1">
          <mxGeometry x="90" y="280" width="670" height="500" as="geometry" />
        </mxCell>
        <mxCell id="rnWshpyR3_FJ3rtjjiAS-28" value="" style="rounded=1;whiteSpace=wrap;html=1;fillColor=#dae8fc;strokeColor=#6c8ebf;" vertex="1" parent="rnWshpyR3_FJ3rtjjiAS-42">
          <mxGeometry x="197.05882352941174" y="288.63636363636374" width="177.3529411764706" height="165.34090909090915" as="geometry" />
        </mxCell>
        <mxCell id="rnWshpyR3_FJ3rtjjiAS-23" value="" style="rounded=1;whiteSpace=wrap;html=1;fillColor=#dae8fc;strokeColor=#6c8ebf;" vertex="1" parent="rnWshpyR3_FJ3rtjjiAS-42">
          <mxGeometry x="433.5294117647059" y="288.63636363636374" width="236.47058823529414" height="165.34090909090915" as="geometry" />
        </mxCell>
        <mxCell id="rnWshpyR3_FJ3rtjjiAS-10" value="" style="image;aspect=fixed;perimeter=ellipsePerimeter;html=1;align=center;shadow=0;dashed=0;spacingTop=3;image=img/lib/active_directory/web_server.svg;" vertex="1" parent="rnWshpyR3_FJ3rtjjiAS-42">
          <mxGeometry x="19.705882352941178" y="45.45454545454547" width="73.65046129686581" height="92.06307662108226" as="geometry" />
        </mxCell>
        <mxCell id="rnWshpyR3_FJ3rtjjiAS-1" value="" style="image;sketch=0;aspect=fixed;html=1;points=[];align=center;fontSize=12;image=img/lib/mscae/Docker.svg;" vertex="1" parent="rnWshpyR3_FJ3rtjjiAS-42">
          <mxGeometry y="136.3636363636364" width="44.90836877576393" height="36.82523064843291" as="geometry" />
        </mxCell>
        <mxCell id="rnWshpyR3_FJ3rtjjiAS-11" value="" style="shape=image;html=1;verticalAlign=top;verticalLabelPosition=bottom;labelBackgroundColor=#ffffff;imageAspect=0;aspect=fixed;image=https://cdn1.iconfinder.com/data/icons/CrystalClear/128x128/mimetypes/php.png" vertex="1" parent="rnWshpyR3_FJ3rtjjiAS-42">
          <mxGeometry x="236.47058823529414" y="45.45454545454547" width="92.06307662108226" height="92.06307662108226" as="geometry" />
        </mxCell>
        <mxCell id="rnWshpyR3_FJ3rtjjiAS-12" value="" style="image;sketch=0;aspect=fixed;html=1;points=[];align=center;fontSize=12;image=img/lib/mscae/Docker.svg;" vertex="1" parent="rnWshpyR3_FJ3rtjjiAS-42">
          <mxGeometry x="216.76470588235296" y="136.3636363636364" width="44.90836877576393" height="36.82523064843291" as="geometry" />
        </mxCell>
        <mxCell id="rnWshpyR3_FJ3rtjjiAS-13" value="" style="shape=image;html=1;verticalAlign=top;verticalLabelPosition=bottom;labelBackgroundColor=#ffffff;imageAspect=0;aspect=fixed;image=https://cdn1.iconfinder.com/data/icons/CrystalClear/128x128/mimetypes/php.png" vertex="1" parent="rnWshpyR3_FJ3rtjjiAS-42">
          <mxGeometry x="240.41176470588235" y="304.5454545454546" width="92.06307662108226" height="92.06307662108226" as="geometry" />
        </mxCell>
        <mxCell id="rnWshpyR3_FJ3rtjjiAS-14" value="" style="image;sketch=0;aspect=fixed;html=1;points=[];align=center;fontSize=12;image=img/lib/mscae/Docker.svg;" vertex="1" parent="rnWshpyR3_FJ3rtjjiAS-42">
          <mxGeometry x="220.70588235294125" y="395.4545454545456" width="44.90836877576393" height="36.82523064843291" as="geometry" />
        </mxCell>
        <mxCell id="rnWshpyR3_FJ3rtjjiAS-15" value="" style="outlineConnect=0;dashed=0;verticalLabelPosition=bottom;verticalAlign=top;align=center;html=1;shape=mxgraph.aws3.volume;fillColor=#E05243;gradientColor=none;" vertex="1" parent="rnWshpyR3_FJ3rtjjiAS-42">
          <mxGeometry x="315.29411764705884" y="389.7727272727275" width="39.411764705882355" height="51.13636363636365" as="geometry" />
        </mxCell>
        <mxCell id="rnWshpyR3_FJ3rtjjiAS-16" value="" style="sketch=0;outlineConnect=0;fontColor=#232F3E;gradientColor=none;fillColor=#C925D1;strokeColor=none;dashed=0;verticalLabelPosition=bottom;verticalAlign=top;align=center;html=1;fontSize=12;fontStyle=0;aspect=fixed;pointerEvents=1;shape=mxgraph.aws4.rds_mysql_instance;" vertex="1" parent="rnWshpyR3_FJ3rtjjiAS-42">
          <mxGeometry x="512.3529411764706" y="56.818181818181834" width="73.65046129686581" height="73.65046129686581" as="geometry" />
        </mxCell>
        <mxCell id="rnWshpyR3_FJ3rtjjiAS-17" value="" style="html=1;verticalLabelPosition=bottom;align=center;labelBackgroundColor=#ffffff;verticalAlign=top;strokeWidth=2;strokeColor=#0080F0;shadow=0;dashed=0;shape=mxgraph.ios7.icons.data;" vertex="1" parent="rnWshpyR3_FJ3rtjjiAS-42">
          <mxGeometry x="567.5294117647059" y="304.5454545454546" width="63.05882352941177" height="81.81818181818184" as="geometry" />
        </mxCell>
        <mxCell id="rnWshpyR3_FJ3rtjjiAS-18" value="" style="image;sketch=0;aspect=fixed;html=1;points=[];align=center;fontSize=12;image=img/lib/mscae/Docker.svg;" vertex="1" parent="rnWshpyR3_FJ3rtjjiAS-42">
          <mxGeometry x="492.6470588235294" y="136.3636363636364" width="44.90836877576393" height="36.82523064843291" as="geometry" />
        </mxCell>
        <mxCell id="rnWshpyR3_FJ3rtjjiAS-19" value="" style="sketch=0;outlineConnect=0;fontColor=#232F3E;gradientColor=none;fillColor=#C925D1;strokeColor=none;dashed=0;verticalLabelPosition=bottom;verticalAlign=top;align=center;html=1;fontSize=12;fontStyle=0;aspect=fixed;pointerEvents=1;shape=mxgraph.aws4.rds_mysql_instance;" vertex="1" parent="rnWshpyR3_FJ3rtjjiAS-42">
          <mxGeometry x="456.56558823529406" y="304.5454545454546" width="74.93934436956097" height="74.93934436956097" as="geometry" />
        </mxCell>
        <mxCell id="rnWshpyR3_FJ3rtjjiAS-20" value="" style="image;sketch=0;aspect=fixed;html=1;points=[];align=center;fontSize=12;image=img/lib/mscae/Docker.svg;" vertex="1" parent="rnWshpyR3_FJ3rtjjiAS-42">
          <mxGeometry x="527.7432352941177" y="392.6136363636365" width="44.90836877576393" height="36.82523064843291" as="geometry" />
        </mxCell>
        <mxCell id="rnWshpyR3_FJ3rtjjiAS-24" value="" style="endArrow=classic;startArrow=classic;html=1;rounded=0;" edge="1" parent="rnWshpyR3_FJ3rtjjiAS-42" source="rnWshpyR3_FJ3rtjjiAS-10" target="rnWshpyR3_FJ3rtjjiAS-11">
          <mxGeometry width="50" height="50" relative="1" as="geometry">
            <mxPoint x="256.1764705882353" y="318.1818181818183" as="sourcePoint" />
            <mxPoint x="354.7058823529412" y="204.5454545454546" as="targetPoint" />
          </mxGeometry>
        </mxCell>
        <mxCell id="rnWshpyR3_FJ3rtjjiAS-25" value="" style="endArrow=classic;startArrow=classic;html=1;rounded=0;" edge="1" parent="rnWshpyR3_FJ3rtjjiAS-42" source="rnWshpyR3_FJ3rtjjiAS-11" target="rnWshpyR3_FJ3rtjjiAS-16">
          <mxGeometry width="50" height="50" relative="1" as="geometry">
            <mxPoint x="354.7058823529412" y="101.50000000000001" as="sourcePoint" />
            <mxPoint x="492.6470588235294" y="101.50000000000001" as="targetPoint" />
          </mxGeometry>
        </mxCell>
        <mxCell id="rnWshpyR3_FJ3rtjjiAS-26" value="" style="endArrow=classic;startArrow=classic;html=1;rounded=0;entryX=0.5;entryY=0;entryDx=0;entryDy=0;" edge="1" parent="rnWshpyR3_FJ3rtjjiAS-42">
          <mxGeometry width="50" height="50" relative="1" as="geometry">
            <mxPoint x="547.6654051342432" y="130.3748294076364" as="sourcePoint" />
            <mxPoint x="549.7647058823529" y="288.63636363636374" as="targetPoint" />
          </mxGeometry>
        </mxCell>
        <mxCell id="rnWshpyR3_FJ3rtjjiAS-27" value="" style="endArrow=classic;startArrow=classic;html=1;rounded=0;exitX=0.483;exitY=-0.009;exitDx=0;exitDy=0;exitPerimeter=0;" edge="1" parent="rnWshpyR3_FJ3rtjjiAS-42" source="rnWshpyR3_FJ3rtjjiAS-23" target="rnWshpyR3_FJ3rtjjiAS-11">
          <mxGeometry width="50" height="50" relative="1" as="geometry">
            <mxPoint x="540" y="280" as="sourcePoint" />
            <mxPoint x="354.7058823529412" y="204.5454545454546" as="targetPoint" />
          </mxGeometry>
        </mxCell>
        <mxCell id="rnWshpyR3_FJ3rtjjiAS-29" value="" style="endArrow=classic;startArrow=classic;html=1;rounded=0;entryX=0.5;entryY=0;entryDx=0;entryDy=0;exitX=0.5;exitY=1;exitDx=0;exitDy=0;" edge="1" parent="rnWshpyR3_FJ3rtjjiAS-42" source="rnWshpyR3_FJ3rtjjiAS-11">
          <mxGeometry width="50" height="50" relative="1" as="geometry">
            <mxPoint x="281.267021121909" y="136.36762207562774" as="sourcePoint" />
            <mxPoint x="283.74529411764706" y="287.48636363636376" as="targetPoint" />
          </mxGeometry>
        </mxCell>
        <mxCell id="rnWshpyR3_FJ3rtjjiAS-30" value="" style="endArrow=classic;startArrow=classic;html=1;rounded=0;exitX=0.477;exitY=-0.011;exitDx=0;exitDy=0;exitPerimeter=0;entryX=0.986;entryY=0.92;entryDx=0;entryDy=0;entryPerimeter=0;" edge="1" parent="rnWshpyR3_FJ3rtjjiAS-42" source="rnWshpyR3_FJ3rtjjiAS-28" target="rnWshpyR3_FJ3rtjjiAS-10">
          <mxGeometry width="50" height="50" relative="1" as="geometry">
            <mxPoint x="349.1685294117647" y="334.0909090909092" as="sourcePoint" />
            <mxPoint x="132.40382352941177" y="181.81818181818187" as="targetPoint" />
          </mxGeometry>
        </mxCell>
        <mxCell id="rnWshpyR3_FJ3rtjjiAS-33" value="&lt;div align=&quot;center&quot;&gt;&lt;font style=&quot;font-size: 9px;&quot;&gt;Volumen de datos&lt;/font&gt;&lt;/div&gt;" style="strokeWidth=1;shadow=0;dashed=0;align=center;html=1;shape=mxgraph.mockup.text.textBox;fontColor=#666666;align=left;fontSize=17;spacingLeft=4;spacingTop=-3;whiteSpace=wrap;strokeColor=#666666;mainText=" vertex="1" parent="rnWshpyR3_FJ3rtjjiAS-42">
          <mxGeometry x="246.16" y="460" width="83.84" height="32.73" as="geometry" />
        </mxCell>
        <mxCell id="rnWshpyR3_FJ3rtjjiAS-35" value="&lt;div align=&quot;center&quot;&gt;&lt;font style=&quot;font-size: 8px;&quot;&gt;Nginx&lt;/font&gt;&lt;/div&gt;" style="strokeWidth=1;shadow=0;dashed=0;align=center;html=1;shape=mxgraph.mockup.text.textBox;fontColor=#666666;align=left;fontSize=17;spacingLeft=4;spacingTop=-3;whiteSpace=wrap;strokeColor=#666666;mainText=" vertex="1" parent="rnWshpyR3_FJ3rtjjiAS-42">
          <mxGeometry x="41.31" y="20" width="30.44" height="18.64" as="geometry" />
        </mxCell>
        <mxCell id="rnWshpyR3_FJ3rtjjiAS-36" value="&lt;font style=&quot;font-size: 8px;&quot;&gt;PHP-FPM&lt;/font&gt;" style="strokeWidth=1;shadow=0;dashed=0;align=center;html=1;shape=mxgraph.mockup.text.textBox;fontColor=#666666;align=left;fontSize=17;spacingLeft=4;spacingTop=-3;whiteSpace=wrap;strokeColor=#666666;mainText=" vertex="1" parent="rnWshpyR3_FJ3rtjjiAS-42">
          <mxGeometry x="250" y="20" width="43.53" height="18.64" as="geometry" />
        </mxCell>
        <mxCell id="rnWshpyR3_FJ3rtjjiAS-40" value="&lt;font style=&quot;font-size: 8px;&quot;&gt;MySQL&lt;/font&gt;" style="strokeWidth=1;shadow=0;dashed=0;align=center;html=1;shape=mxgraph.mockup.text.textBox;fontColor=#666666;align=left;fontSize=17;spacingLeft=4;spacingTop=-3;whiteSpace=wrap;strokeColor=#666666;mainText=" vertex="1" parent="rnWshpyR3_FJ3rtjjiAS-42">
          <mxGeometry x="525.79" y="26.81" width="41.74" height="18.64" as="geometry" />
        </mxCell>
        <mxCell id="rnWshpyR3_FJ3rtjjiAS-43" value="&lt;div align=&quot;center&quot;&gt;&lt;font style=&quot;font-size: 9px;&quot;&gt;Volumen de datos&lt;/font&gt;&lt;/div&gt;" style="strokeWidth=1;shadow=0;dashed=0;align=center;html=1;shape=mxgraph.mockup.text.textBox;fontColor=#666666;align=left;fontSize=17;spacingLeft=4;spacingTop=-3;whiteSpace=wrap;strokeColor=#666666;mainText=" vertex="1" parent="rnWshpyR3_FJ3rtjjiAS-42">
          <mxGeometry x="507.25999999999993" y="460" width="83.84" height="32.73" as="geometry" />
        </mxCell>
      </root>
    </mxGraphModel>
  </diagram>
</mxfile>
